<?xml version="1.0" encoding="utf-8"?>
<!-- Generator: Adobe Illustrator 17.0.1, SVG Export Plug-In . SVG Version: 6.00 Build 0)  -->
<!DOCTYPE svg PUBLIC "-//W3C//DTD SVG 1.1//EN" "http://www.w3.org/Graphics/SVG/1.1/DTD/svg11.dtd">
<svg version="1.1" id="Media_x5F_icon_1_" xmlns="http://www.w3.org/2000/svg" xmlns:xlink="http://www.w3.org/1999/xlink" x="0px"
	 y="0px" width="24px" height="22.5px" viewBox="0 0 24 22.5" enable-background="new 0 0 24 22.5" xml:space="preserve">
<g id="Forma_1">
	<g>
		<path fill-rule="evenodd" clip-rule="evenodd" fill="#65757F" d="M5.5,10.069c1.536,0,2.784-1.249,2.784-2.784
			C8.284,5.749,7.036,4.5,5.5,4.5S2.715,5.749,2.715,7.284S3.964,10.069,5.5,10.069z M5.5,5.5c0.984,0,1.784,0.801,1.784,1.784
			c0,0.983-0.8,1.784-1.784,1.784s-1.785-0.8-1.785-1.784S4.516,5.5,5.5,5.5z M23.838,13.131l-6-5.5
			c-0.098-0.089-0.228-0.134-0.36-0.131c-0.133,0.006-0.258,0.065-0.347,0.163l-4.897,5.363l-2.371-2.372
			c-0.187-0.186-0.486-0.196-0.684-0.022l-8.508,7.491c-0.208,0.183-0.227,0.499-0.045,0.706C0.724,18.943,0.862,19,1,19
			c0.117,0,0.235-0.041,0.33-0.125l8.156-7.181l5.151,5.151c0.196,0.195,0.512,0.195,0.707,0s0.195-0.511,0-0.707l-2.404-2.404
			l4.591-5.027l5.63,5.162c0.203,0.186,0.52,0.172,0.706-0.031C24.055,13.634,24.042,13.318,23.838,13.131z"/>
	</g>
</g>
<g id="Rounded_Rectangle_4">
	<g>
		<path fill="#65757F" d="M21.5,1C22.328,1,23,1.672,23,2.5V20c0,0.828-0.672,1.5-1.5,1.5h-19C1.672,21.5,1,20.828,1,20V2.5
			C1,1.672,1.672,1,2.5,1H21.5 M21.5,0h-19C1.122,0,0,1.121,0,2.5V20c0,1.378,1.122,2.5,2.5,2.5h19c1.379,0,2.5-1.122,2.5-2.5V2.5
			C24,1.121,22.879,0,21.5,0L21.5,0z"/>
	</g>
</g>
</svg>
