<svg xmlns="http://www.w3.org/2000/svg" width="32" height="22"><path fill="#65757F" fill-rule="evenodd" d="M5.323 15.558l1.608 1.637 3.84-3.859-1.608-1.637-3.84 3.859zM27 4.244l-7.168 8.712 1.66 1.584 7.168-8.712L27 4.244zm-13.984 9.045l3.569 2.43 1.16-2.03-3.569-2.43-1.16 2.03z" clip-rule="evenodd"/><path fill="#65757F" d="M28.766 2.594c.699 0 1.266.56 1.266 1.25s-.567 1.25-1.266 1.25-1.266-.56-1.266-1.25.567-1.25 1.266-1.25M11.984 9.906c.699 0 1.266.56 1.266 1.25s-.567 1.25-1.266 1.25-1.266-.56-1.266-1.25.567-1.25 1.266-1.25m6.891 4.594a1.25 1.25 0 1 1 0 2.5 1.25 1.25 0 0 1 0-2.5M3.953 16.781a1.266 1.266 0 1 1 0 2.532 1.266 1.266 0 0 1 0-2.532M28.766.594c-1.801 0-3.266 1.458-3.266 3.25s1.465 3.25 3.266 3.25 3.266-1.458 3.266-3.25-1.466-3.25-3.266-3.25zM11.984 7.906c-1.801 0-3.266 1.458-3.266 3.25s1.465 3.25 3.266 3.25 3.266-1.458 3.266-3.25-1.465-3.25-3.266-3.25zm6.891 4.594c-1.792 0-3.25 1.458-3.25 3.25S17.083 19 18.875 19s3.25-1.458 3.25-3.25-1.458-3.25-3.25-3.25zM3.953 14.781a3.27 3.27 0 0 0-3.266 3.266 3.27 3.27 0 0 0 3.266 3.266 3.27 3.27 0 0 0 3.266-3.266 3.27 3.27 0 0 0-3.266-3.266z"/></svg>