<svg xmlns="http://www.w3.org/2000/svg" width="24" height="28"><path fill="#65757F" fill-rule="evenodd" d="M23.562 18.017h-.591v-4.469c0-.665-.633-1.197-1.259-1.337l1.956-4.037c.452-.875.222-1.96-.647-2.45L13.619.555C12.784.1 11.637.45 11.185 1.29L6.789 9.006l-5.363-.01C.626 8.996 0 10.188 0 10.993v15.573C0 27.37.626 28 1.426 28h20.119c.8 0 1.426-.63 1.426-1.435V23.02h.591c.313 0 .431-.245.431-.56v-3.883c0-.315-.118-.56-.431-.56zM12.339 2.96c.174-.315.591-.455.904-.28l1.682.927-4.557 8.38H7.58l4.759-9.027zM1.953 11.271c0-.105.139-.28.313-.28h3.137l-.765 1.025H2.266c-.104 0-.209 0-.313.035v-.78zM21.011 25.69a.313.313 0 0 1-.313.315H2.328a.313.313 0 0 1-.313-.315V14.298c0-.175.139-.315.313-.315h18.366c.174 0 .313.14.313.315v3.719h-1.371c-.939 0-1.638.395-1.638 1.305v1.987c0 .945.765 1.68 1.669 1.68h1.343v2.701zm-1.346-13.702h-4.979l3.216-6.631 3.479 1.746c.348.14.452.56.278.875l-1.994 4.01zm-.272-3.863l-.231-.116c-.577-.32-1.356-.087-1.674.494l-.288.551c-.144.29-.202.639-.087.958.087.319.317.581.606.726l.231.116c.173.088.375.146.577.146.462 0 .866-.261 1.097-.639l.289-.552c.288-.61.057-1.365-.52-1.684z" clip-rule="evenodd"/></svg>