<svg xmlns="http://www.w3.org/2000/svg" width="19" height="21"><path fill="#65757F" d="M9.548 2.193c4.011 0 7.263 3.184 7.263 7.111 0 3.927-3.252 7.111-7.263 7.111a7.379 7.379 0 0 1-2.806-.55c-1.147.678-2.699 1.575-2.699 1.575s.111-1.437.182-2.662c-.976-1.211-1.939-3.811-1.939-5.473 0-3.929 3.251-7.112 7.262-7.112m0-2C4.441.193.285 4.28.285 9.304c0 1.784.831 4.358 1.9 6.049-.064.995-.136 1.927-.137 1.932l-.293 3.788 3.289-1.902s.952-.55 1.918-1.116c.836.239 1.702.36 2.586.36 5.107 0 9.263-4.087 9.263-9.111 0-5.024-4.155-9.111-9.263-9.111z"/></svg>