<svg xmlns="http://www.w3.org/2000/svg" width="23" height="21"><path fill="#65757F" d="M6.798 2.281c1.786 0 3.643 1.111 4.676 3.463.997-2.285 2.881-3.391 4.696-3.391 2.375 0 4.632 1.894 4.632 5.517 0 6.296-9.313 10.255-9.313 10.255s-4.178-1.772-6.944-4.82c-1.368-1.507-2.389-3.326-2.389-5.397-.001-3.647 2.257-5.627 4.642-5.627m0-2c-1.8 0-3.468.747-4.698 2.102C.828 3.787.155 5.697.155 7.908c0 2.346.978 4.613 2.908 6.74 3.026 3.334 7.457 5.237 7.644 5.317l.782.332.782-.332c.43-.183 10.531-4.563 10.531-12.096 0-2.204-.678-4.099-1.961-5.479A6.316 6.316 0 0 0 16.17.352c-1.756 0-3.398.697-4.682 1.918C10.197 1.004 8.55.281 6.798.281z"/></svg>