<svg xmlns="http://www.w3.org/2000/svg" width="22" height="21"><path fill="#65757F" d="M11.024 2.191c4.545 0 8.242 3.602 8.242 8.029s-3.697 8.029-8.242 8.029a8.334 8.334 0 0 1-5.553-2.101 8.112 8.112 0 0 1-1.747-2.204 7.823 7.823 0 0 1-.795-5.237 7.885 7.885 0 0 1 1.228-2.923 8.276 8.276 0 0 1 5.488-3.48 8.47 8.47 0 0 1 1.379-.113M10.58 12.59c-.419-.087-.624-.295-.783-.456-.046-.046-.093-.094-.146-.138a.687.687 0 0 0-.127-.085.49.49 0 0 0-.23-.057c-.314 0-.567.272-.638.554a.624.624 0 0 0-.02.153c0 .324.307.735.842 1.024.3.162.672.287 1.103.334v.185c0 .296.265.537.59.537.314 0 .59-.251.59-.537v-.252c1.056-.248 1.654-1.018 1.654-2.154 0-1.463-.972-1.97-1.654-2.228V7.782c.186.048.321.115.431.169.129.064.251.125.399.125.418 0 .649-.418.649-.708 0-.572-.815-.824-1.479-.905v-.126c0-.286-.276-.537-.59-.537-.325 0-.59.241-.59.537v.156c-.36.06-.672.175-.929.338-.542.342-.842.896-.842 1.608 0 .214.024.405.068.575.23.892 1.003 1.224 1.702 1.468v2.108m.019-4.784v1.237c-.309-.157-.445-.337-.445-.661.001-.129.001-.431.445-.576m1.132 3.177c.217.173.327.4.327.773 0 .345-.104.578-.327.718v-1.491M11.024.191c-.568 0-1.142.047-1.704.14a10.306 10.306 0 0 0-6.815 4.326 9.83 9.83 0 0 0-.54 10.238 10.073 10.073 0 0 0 2.177 2.748 10.338 10.338 0 0 0 6.882 2.607c5.648 0 10.242-4.499 10.242-10.029 0-5.531-4.595-10.03-10.242-10.03z"/></svg>