<svg xmlns="http://www.w3.org/2000/svg" width="20" height="20"><path fill="none" stroke="#65757F" stroke-miterlimit="100" stroke-width="2" d="M16.963 15.994v-3H16v3h-.67l1.243 1.595 1.12-1.595zM16.573 3.411L15.33 5.006H16v3h.963v-3h.73z"/><path fill="#65757F" fill-rule="evenodd" d="M11.132 11.185c.076.133.148.259-.003-.006-.154-.27-.079-.139-.003-.004-.493-.862-1.348-1.408-2.251-1.765-.597-.236-1.221-.399-1.845-.549V4.767c.524.093 1.049.26 1.482.58.2.148.375.327.51.536.069.107.13.221.177.341.046.118.069.243.114.361.152.397.536.674.961.692a1.09 1.09 0 0 0 1.026-.623c.089-.191.121-.407.09-.616-.019-.131-.061-.26-.101-.386a4.15 4.15 0 0 0-1.016-1.638c-.761-.751-1.779-1.182-2.82-1.37a8.63 8.63 0 0 0-.423-.064V1.391c0-.418-.249-.808-.629-.983a1.087 1.087 0 0 0-1.166.173 1.09 1.09 0 0 0-.365.81v1.195c-1.06.15-2.117.559-2.912 1.292a3.84 3.84 0 0 0-.886 1.218 3.69 3.69 0 0 0-.323 1.567c.004.532.1 1.067.334 1.548.221.455.558.84.956 1.15.818.637 1.841.969 2.832 1.226v4.278c-.507-.142-.993-.382-1.374-.75a2.742 2.742 0 0 1-.474-.608 2.391 2.391 0 0 1-.166-.355c-.046-.123-.074-.251-.115-.376a1.089 1.089 0 0 0-.929-.737 1.08 1.08 0 0 0-1.17 1.186c.013.125.049.246.085.366a4.776 4.776 0 0 0 .949 1.738c.687.805 1.628 1.348 2.642 1.627.183.05.367.092.553.128v1.259c0 .418.249.808.629.982.384.177.85.108 1.166-.172a1.09 1.09 0 0 0 .365-.81v-1.152c1.085-.088 2.177-.402 3.048-1.078a3.864 3.864 0 0 0 1.489-2.625c.084-.784-.045-1.611-.437-2.303zM4.871 8.34a8.77 8.77 0 0 1-.688-.24 3.66 3.66 0 0 1-.706-.365c-.196-.133-.385-.299-.476-.523-.095-.236-.108-.514-.084-.764a1.46 1.46 0 0 1 .255-.691c.378-.552 1.068-.84 1.699-.975V8.34zm4.358 5.522c-.432.769-1.376 1.068-2.199 1.161v-3.932c.507.133 1.017.281 1.484.525.214.112.422.246.586.426.153.168.247.371.292.592.085.41.044.861-.163 1.228z" clip-rule="evenodd"/></svg>