<?xml version="1.0" encoding="utf-8"?>
<!-- Generator: Adobe Illustrator 17.0.1, SVG Export Plug-In . SVG Version: 6.00 Build 0)  -->
<!DOCTYPE svg PUBLIC "-//W3C//DTD SVG 1.1//EN" "http://www.w3.org/Graphics/SVG/1.1/DTD/svg11.dtd">
<svg version="1.1" id="send_x5F_icon_1_" xmlns="http://www.w3.org/2000/svg" xmlns:xlink="http://www.w3.org/1999/xlink" x="0px"
	 y="0px" width="17.5px" height="17.5px" viewBox="0 0 17.5 17.5" enable-background="new 0 0 17.5 17.5" xml:space="preserve">
<g id="send_x5F_icon">
	<g>
		<path fill-rule="evenodd" clip-rule="evenodd" fill="#FFFFFF" d="M6.904,13.401l-2.805,2.805c-0.194,0.194-0.194,0.508,0,0.701
			c0.194,0.194,0.508,0.194,0.701,0l2.805-2.805c0.194-0.194,0.194-0.508,0-0.701C7.412,13.207,7.098,13.207,6.904,13.401z
			 M5.852,11.648c-0.194-0.194-0.508-0.194-0.701,0l-4.909,4.909c-0.194,0.194-0.194,0.508,0,0.701c0.194,0.194,0.508,0.194,0.701,0
			l4.909-4.909C6.046,12.155,6.046,11.841,5.852,11.648z M17.424,0.4c-0.003-0.02-0.006-0.039-0.012-0.059
			C17.406,0.32,17.397,0.3,17.388,0.28c-0.005-0.011-0.007-0.023-0.014-0.033c-0.004-0.007-0.011-0.011-0.016-0.018
			c-0.012-0.017-0.027-0.032-0.043-0.048c-0.016-0.015-0.031-0.03-0.049-0.042c-0.006-0.005-0.011-0.011-0.017-0.015
			c-0.011-0.006-0.022-0.008-0.033-0.013c-0.021-0.01-0.041-0.019-0.063-0.025c-0.018-0.005-0.037-0.008-0.055-0.01
			c-0.022-0.003-0.044-0.004-0.066-0.003c-0.021,0.001-0.041,0.005-0.061,0.01c-0.013,0.003-0.026,0.002-0.039,0.006L0.328,5.75
			c-0.15,0.051-0.252,0.191-0.255,0.349C0.07,6.258,0.166,6.402,0.315,6.459L8.072,9.44l3.352,7.76
			c0.06,0.138,0.197,0.228,0.346,0.228c0.006,0,0.013,0,0.019,0c0.157-0.008,0.293-0.112,0.341-0.262l5.283-16.604
			c0.004-0.012,0.003-0.024,0.005-0.036c0.005-0.021,0.008-0.042,0.009-0.063C17.428,0.441,17.427,0.421,17.424,0.4z M2.673,6.251
			L15.067,1.89l-6.74,6.406L2.673,6.251z M11.595,14.737l-2.109-5.63l6.329-6.812L11.595,14.737z M1.294,13.401l2.805-2.805
			c0.194-0.194,0.194-0.508,0-0.701c-0.194-0.194-0.508-0.194-0.701,0l-2.805,2.805c-0.194,0.194-0.194,0.508,0,0.701
			C0.787,13.594,1.101,13.594,1.294,13.401z"/>
	</g>
</g>
</svg>
