<svg xmlns="http://www.w3.org/2000/svg" width="16" height="20"><path fill="none" stroke="#65757F" stroke-miterlimit="10" d="M11.405 1.574c-1.93 0-3.5 1.494-3.5 3.331v3.667h-6c-.552 0-1 .426-1 .952v8.087c0 .526.448.952 1 .952h9.013c.552 0 1-.426 1-.952V9.524c0-.526-.448-.952-1-.952H9.92V4.905c0-.787.658-1.428 1.485-1.428s1.5.64 1.5 1.428V6.55h2V4.905c0-1.837-1.57-3.331-3.5-3.331zM7.2 14.269v1.109c0 .281-.245.508-.548.508-.302 0-.548-.228-.548-.508v-1.109c-.637-.21-1.095-.768-1.095-1.431 0-.842.736-1.524 1.643-1.524s1.643.682 1.643 1.524c.001.663-.458 1.221-1.095 1.431z"/></svg>